<svg height="512pt" viewBox="0 0 512 512" width="512pt" xmlns="http://www.w3.org/2000/svg"><path d="m273.066406 435.199219c0 4.714843 3.820313 8.535156 8.535156 8.535156h8.53125c4.714844 0 8.535157-3.820313 8.535157-8.535156 0-4.710938-3.820313-8.53125-8.535157-8.53125h-8.53125c-4.714843 0-8.535156 3.820312-8.535156 8.53125zm0 0"/><path d="m247.464844 426.667969h-51.199219c-4.710937 0-8.53125 3.820312-8.53125 8.53125 0 4.714843 3.820313 8.535156 8.53125 8.535156h51.199219c4.714844 0 8.535156-3.820313 8.535156-8.535156 0-4.710938-3.820312-8.53125-8.535156-8.53125zm0 0"/><path d="m8.535156 76.800781c4.710938 0 8.53125-3.820312 8.53125-8.535156v-25.597656c0-14.140625 11.460938-25.601563 25.601563-25.601563h25.597656c4.714844 0 8.535156-3.820312 8.535156-8.53125 0-4.714844-3.820312-8.535156-8.535156-8.535156h-25.597656c-23.554688.0273438-42.6406252 19.113281-42.667969 42.667969v25.597656c0 4.714844 3.820312 8.535156 8.535156 8.535156zm0 0"/><path d="m68.265625 494.933594h-25.597656c-14.140625 0-25.601563-11.460938-25.601563-25.601563v-25.597656c0-4.714844-3.820312-8.535156-8.53125-8.535156-4.714844 0-8.535156 3.820312-8.535156 8.535156v25.597656c.0273438 23.554688 19.113281 42.640625 42.667969 42.667969h25.597656c4.714844 0 8.535156-3.820312 8.535156-8.535156 0-4.710938-3.820312-8.53125-8.535156-8.53125zm0 0"/><path d="m503.464844 435.199219c-4.710938 0-8.53125 3.820312-8.53125 8.535156v25.597656c0 14.140625-11.460938 25.601563-25.601563 25.601563h-25.597656c-4.714844 0-8.535156 3.820312-8.535156 8.53125 0 4.714844 3.820312 8.535156 8.535156 8.535156h25.597656c23.554688-.027344 42.640625-19.113281 42.667969-42.667969v-25.597656c0-4.714844-3.820312-8.535156-8.535156-8.535156zm0 0"/><path d="m469.332031 0h-25.597656c-4.714844 0-8.535156 3.820312-8.535156 8.535156 0 4.710938 3.820312 8.53125 8.535156 8.53125h25.597656c14.140625 0 25.601563 11.460938 25.601563 25.601563v25.597656c0 4.714844 3.820312 8.535156 8.53125 8.535156 4.714844 0 8.535156-3.820312 8.535156-8.535156v-25.597656c-.027344-23.554688-19.113281-42.6406252-42.667969-42.667969zm0 0"/><path d="m68.265625 34.132812h-17.066406c-9.425781 0-17.066407 7.640626-17.066407 17.066407v17.066406c0 4.714844 3.820313 8.535156 8.535157 8.535156 4.710937 0 8.53125-3.820312 8.53125-8.535156v-17.066406h17.066406c4.714844 0 8.535156-3.820313 8.535156-8.53125 0-4.714844-3.820312-8.535157-8.535156-8.535157zm0 0"/><path d="m68.265625 460.800781h-17.066406v-17.066406c0-4.714844-3.820313-8.535156-8.53125-8.535156-4.714844 0-8.535157 3.820312-8.535157 8.535156v17.066406c0 9.425781 7.640626 17.066407 17.066407 17.066407h17.066406c4.714844 0 8.535156-3.820313 8.535156-8.535157 0-4.710937-3.820312-8.53125-8.535156-8.53125zm0 0"/><path d="m460.800781 443.734375v17.066406h-17.066406c-4.714844 0-8.535156 3.820313-8.535156 8.53125 0 4.714844 3.820312 8.535157 8.535156 8.535157h17.066406c9.425781 0 17.066407-7.640626 17.066407-17.066407v-17.066406c0-4.714844-3.820313-8.535156-8.535157-8.535156-4.710937 0-8.53125 3.820312-8.53125 8.535156zm0 0"/><path d="m469.332031 76.800781c4.714844 0 8.535157-3.820312 8.535157-8.535156v-17.066406c0-9.425781-7.640626-17.066407-17.066407-17.066407h-17.066406c-4.714844 0-8.535156 3.820313-8.535156 8.535157 0 4.710937 3.820312 8.53125 8.535156 8.53125h17.066406v17.066406c0 4.714844 3.820313 8.535156 8.53125 8.535156zm0 0"/><path d="m443.734375 349.867188v42.667968c0 4.710938 3.820313 8.53125 8.53125 8.53125 4.714844 0 8.535156-3.820312 8.535156-8.53125v-42.667968h17.066407c4.710937 0 8.53125-3.820313 8.53125-8.535157 0-4.710937-3.820313-8.53125-8.53125-8.53125h-77.832032c.851563-1.894531 1.773438-3.816406 2.636719-5.691406 3.914063-8.59375 7.832031-17.179687 12.015625-25.601563 9.222656-20.367187 21.753906-39.070312 37.085938-55.347656 8.148437-6.992187 11.046874-18.34375 7.25-28.390625-5.347657-11.160156-16.722657-18.164062-29.097657-17.917969-21.851562 0-56.574219 38.707032-70.3125 59.433594-6.90625 10.433594-15.375 19.742188-25.105469 27.605469-3.183593-6.492187-6.828124-20.25-1.902343-46.242187l35.839843-153.113282c1.992188-8.367187.5625-17.179687-3.976562-24.484375-4.539062-7.304687-11.808594-12.492187-20.191406-14.410156-8.375-1.96875-17.1875-.527344-24.5 4.003906s-12.523438 11.785157-14.488282 20.160157l-23.6875 101.402343v-123.46875c.339844-17.625-13.207031-32.421875-30.796874-33.628906-8.875-.46875-17.550782 2.726563-24.003907 8.835937-6.453125 6.113282-10.113281 14.601563-10.132812 23.488282v174.769531l-22.960938-148.46875c-2.03125-12.945313-11.636719-23.40625-24.363281-26.527344-12.726562-3.125-26.082031 1.699219-33.878906 12.234375-5.121094 6.878906-7.273438 15.523438-5.972656 24.003906l25.15625 165.777344-26.453126-77.175781v-.136719c-2.960937-8.519531-9.332031-15.425781-17.585937-19.0625-8.25-3.640625-17.644531-3.6875-25.933594-.128906-15.785156 7.199219-23.390625 25.316406-17.476562 41.625l47.265625 136.457031h-80.332032c-4.710937 0-8.53125 3.820313-8.53125 8.53125 0 4.714844 3.820313 8.535157 8.53125 8.535157h17.066407v42.667968c0 4.710938 3.820312 8.53125 8.535156 8.53125 4.710937 0 8.53125-3.820312 8.53125-8.53125v-42.667968h17.066406v42.667968c0 4.710938 3.820313 8.53125 8.535157 8.53125 4.710937 0 8.53125-3.820312 8.53125-8.53125v-42.667968h17.972656l17.066406 49.210937c3.597656 9.578125 8.382812 18.664063 14.25 27.042969.996094 1.164062 1.660156 2.570312 1.921875 4.078125v40.285156c-.023437 13.464844 10.863281 24.40625 24.328125 24.449219h129.261719c13.738281.132812 25.089843-10.691406 25.601562-24.421875v-2.945313c0-1.980468 0-3.984375-.058593-5.972656-.445313-7.546875.050781-15.121094 1.472656-22.546875 2.261718-7.660156 6.207031-14.71875 11.546875-20.65625 2.636719-3.234375 5.425781-6.332031 8.21875-9.449219 5.015625-5.359375 9.695312-11.03125 14.011719-16.972656 5.953124-8.582031 11.394531-17.511719 16.289062-26.742188 2.707031-5.035156 5.214844-10.179687 7.679688-15.359374h17.640624v42.667968c0 4.710938 3.820313 8.53125 8.53125 8.53125 4.714844 0 8.535157-3.820312 8.535157-8.53125v-42.667968zm-69.898437-81.210938c17.683593-26.675781 46.59375-51.789062 56.089843-51.789062 5.472657-.171876 10.597657 2.683593 13.339844 7.421874 1.203125 2.894532 0 6.195313-3.601563 9.804688-16.652343 17.578125-30.273437 37.792969-40.304687 59.828125-4.265625 8.617187-8.242187 17.355469-12.226563 26.085937-1.929687 4.265626-3.933593 8.535157-5.921874 12.800782h-89.183594c.613281-1.253906 1.296875-2.476563 2.046875-3.652344 4.742187-7.121094 11.972656-12.210938 20.277343-14.277344l3.0625-.902344c6.925782-1.71875 13.578126-4.402343 19.753907-7.972656 14.652343-9.804687 27.132812-22.519531 36.667969-37.347656zm-290.492188-77.875c-2.917969-7.84375.546875-16.628906 8.039062-20.363281 4.105469-1.753907 8.769532-1.65625 12.800782.265625 3.640625 1.800781 6.445312 4.9375 7.832031 8.753906v.0625l28.527344 83.085938c2.183593 6.664062 8.398437 11.171874 15.414062 11.171874 1.398438 0 2.796875-.171874 4.152344-.511718 8.363281-1.910156 13.789063-10.003906 12.382813-18.464844l-26.085938-171.914062c-.617188-3.996094.390625-8.074219 2.800781-11.324219 3.691407-5.007813 10.03125-7.304688 16.074219-5.832031 6.042969 1.476562 10.609375 6.4375 11.582031 12.582031l24.019531 155.664062c1.097657 8.085938 8.054688 14.082031 16.214844 13.980469.460938 0 .921875 0 1.382813-.0625 8.65625-.511719 15.378906-7.753906 15.246093-16.425781v-182.015625c-.027343-4.195313 1.691407-8.214844 4.746094-11.09375 3.078125-2.929688 7.234375-4.453125 11.476563-4.207032 8.464843.851563 14.832031 8.101563 14.585937 16.605469v180.183594c.011719 5.335937 4.019532 9.820313 9.324219 10.429687 5.304687.609376 10.226563-2.84375 11.453125-8.042968l36.597656-156.578125c.933594-3.972657 3.414063-7.410157 6.886719-9.554688 3.476563-2.144531 7.660156-2.816406 11.632813-1.871093 3.964843.882812 7.410156 3.320312 9.5625 6.765624 2.152343 3.441407 2.835937 7.605469 1.898437 11.554688l-35.933594 153.363281v.195313c0 .070312-.0625.101562-.070312.164062-5.777344 30.566406-1.28125 48.273438 3.824219 58.023438-2.1875.761718-4.464844 1.453125-7.082032 2.21875l-3.167968.933594c-12.246094 3.234374-22.863282 10.882812-29.804688 21.476562-2.582031 3.914062-4.460938 8.242188-5.558594 12.800781h-141.574218zm285.867188 166.347656c-4.59375 8.644532-9.6875 17.011719-15.257813 25.0625-3.914063 5.375-8.15625 10.507813-12.707031 15.359375-2.96875 3.300781-5.972656 6.613281-8.734375 10.042969-6.933594 7.933594-12.023438 17.304688-14.910157 27.4375-1.796874 8.816406-2.453124 17.832031-1.953124 26.816406l.085937 8.664063c-.59375 4.246093-4.246094 7.394531-8.535156 7.355469h-129.261719c-4.039062-.027344-7.289062-3.320313-7.269531-7.355469v-40.285157c-.1875-4.960937-1.894531-9.746093-4.890625-13.707031-4.976563-7.125-9.070313-14.832031-12.1875-22.945312l-15.152344-43.707031h83.429688v42.667968c0 4.710938 3.820312 8.53125 8.53125 8.53125 4.714843 0 8.535156-3.820312 8.535156-8.53125v-42.667968h17.066406v42.667968c0 4.710938 3.820312 8.53125 8.535156 8.53125 4.710938 0 8.53125-3.820312 8.53125-8.53125v-42.667968h99.839844c-1.246094 2.414062-2.398438 4.890624-3.660156 7.261718zm0 0"/></svg>