<svg height="512pt" viewBox="0 0 512.06797 512" width="512pt" xmlns="http://www.w3.org/2000/svg"><path d="m93.867188 119.5h68.265624c4.714844 0 8.535157-3.820312 8.535157-8.53125 0-4.714844-3.820313-8.535156-8.535157-8.535156h-68.265624c-4.714844 0-8.535157 3.820312-8.535157 8.535156 0 4.710938 3.820313 8.53125 8.535157 8.53125zm0 0"/><path d="m196.265625 119.5h8.535156c4.710938 0 8.53125-3.820312 8.53125-8.53125 0-4.714844-3.820312-8.535156-8.53125-8.535156h-8.535156c-4.710937 0-8.53125 3.820312-8.53125 8.535156 0 4.710938 3.820313 8.53125 8.53125 8.53125zm0 0"/><path d="m219.734375 366.335938c-3.414063-5.972657-29.78125-23.621094-36.105469-27.777344-.109375-.085938-.230468-.144532-.339844-.230469l-1.042968-.671875c-5.726563-3.386719-10.976563-7.515625-15.617188-12.28125 1.007813-1.066406 2.101563-2.132812 3.320313-3.207031 8.308593-6.621094 13.40625-16.46875 14.011719-27.078125 24.679687-8.890625 28.09375-21.332032 28.40625-26.222656 2.417968-12.285157.964843-26.144532-10.238282-29.011719-4.769531-.945313-9.695312-.785157-14.394531.46875 0-4.265625-.085937-9.019531-.359375-14.582031-1.707031-35.089844-36.984375-45.757813-55.722656-46.507813h-7.59375c-18.398438.742187-53.640625 11.410156-55.382813 46.496094-.296875 5.558593-.410156 10.328125-.410156 14.585937-4.703125-1.265625-9.636719-1.433594-14.421875-.496094-11.175781 2.882813-12.628906 16.742188-10.238281 29.015626.316406 4.90625 3.730469 17.328124 28.40625 26.222656.605469 10.605468 5.703125 20.453125 14.011719 27.074218 1.222656 1.074219 2.3125 2.140626 3.320312 3.207032-4.59375 4.730468-9.789062 8.832031-15.453125 12.203125l-1.167969.753906c-.128906.09375-.265625.160156-.394531.253906-6.671875 4.378907-32.699219 21.804688-35.960937 27.539063-1.839844 3.273437-2.609376 7.042968-2.207032 10.777344v5.972656c.050782 4.894531 2.046875 9.570312 5.546875 12.996094 3.5 3.425781 8.21875 5.320312 13.113281 5.265624h150.359376c10.171874.078126 18.492187-8.089843 18.601562-18.261718v-5.972656c.410156-3.636719-.304688-7.3125-2.046875-10.53125zm-24.226563-100.179688c-.101562.488281-.15625.984375-.171874 1.484375-.417969 1.535156-3.25 5.230469-11.425782 9.050781.210938-2.550781.574219-5.085937 1.09375-7.59375.578125-2.960937 1.234375-6.355468 1.757813-10.785156 3.019531-1.113281 6.175781-1.816406 9.386719-2.097656.265624 3.324218.050781 6.675781-.640626 9.941406zm-134.828124 1.484375c-.011719-.507813-.070313-1.007813-.179688-1.503906-.679688-3.257813-.882812-6.597657-.605469-9.914063 3.207031.285156 6.363281.992188 9.386719 2.097656.519531 4.429688 1.179688 7.824219 1.757812 10.777344.519532 2.507813.882813 5.042969 1.09375 7.59375-8.21875-3.8125-11.050781-7.507812-11.46875-9.050781zm28.449218 18.335937c.113282-2.210937.222656-4.46875.222656-6.824218-.0625-4.5-.59375-8.976563-1.585937-13.363282-2.527344-12.925781-3.21875-26.140624-2.058594-39.253906 1.410157-28.261718 37.546875-30.234375 38.683594-30.292968h6.910156c1.539063.058593 37.609375 1.84375 39.023438 30.300781 1.164062 13.117187.472656 26.332031-2.054688 39.253906-.992187 4.386719-1.523437 8.863281-1.589843 13.363281 0 2.3125.113281 4.574219.222656 6.824219 1.972656 8.730469-1.21875 17.816406-8.214844 23.390625-5.058594 4.570312-9.511719 9.765625-13.253906 15.464844-4.769532 6.824218-5.972656 8.003906-10.15625 8.003906h-14.503906c-4.199219 0-5.386719-1.214844-10.15625-8.003906-3.742188-5.699219-8.195313-10.894532-13.25-15.464844-7.015626-5.570312-10.21875-14.660156-8.253907-23.398438zm-37.84375 96.863282-.085937-6.640625c0-.425781 0-.964844-.066407-1.246094 2.636719-2.480469 10.359376-8.171875 17.398438-13.191406.449219 7.765625 2.515625 15.351562 6.066406 22.273437h-21.777344c-.746093.070313-1.421874-.453125-1.535156-1.195312zm102.316406 1.195312h-56.253906c-12.117187-7.136718-12.5-24.347656-11.75-33.527344 5.078125-3.40625 9.84375-7.253906 14.242188-11.503906 4.660156 6.949219 12.53125 11.054688 20.898437 10.898438h14.507813c8.371094.160156 16.25-3.945313 20.914062-10.898438 4.378906 4.265625 9.140625 8.117188 14.226563 11.511719.75 9.191406.355469 26.382813-11.753907 33.519531zm51.199219-7.835937-.050781 6.640625c-.117188.742187-.789062 1.265625-1.539062 1.195312h-21.808594c3.539062-6.921875 5.59375-14.503906 6.03125-22.265625 7.042968 5.011719 14.703125 10.660157 17.367187 13.152344zm0 0"/><path d="m459.296875 202.957031c-8.941406-2.605469-17.179687-7.203125-24.097656-13.441406v-15.519531c9.953125-10.863282 14.488281-25.632813 12.347656-40.210938 13.433594-4.933594 23.996094-15.554687 28.859375-29.011718 1.117188-5.378907 5.8125-32.429688-11.09375-36.90625-4.296875-1.148438-8.8125-1.191407-13.132812-.121094-.074219-3.269532-.195313-6.742188-.375-10.503906-2.097657-43.144532-44.867188-56.285157-67.53125-57.2070318h-9.386719c-22.359375.9218748-65.125 14.0624998-67.21875 57.1718748-.179688 3.746094-.296875 7.195313-.367188 10.453125-4.246093-1.039062-8.691406-.996094-12.917969.128906-17.066406 4.460938-12.507812 31.574219-11.296874 37.425782 5.027343 13.242187 15.542968 23.65625 28.832031 28.554687-2.144531 14.582031 2.390625 29.355469 12.347656 40.226563v15.519531c-6.90625 6.253906-15.148437 10.84375-24.097656 13.433594-9.484375 2.101562-18.554688 5.746093-26.855469 10.792969-5.734375 3.320312-11.511719 6.503906-17.3125 9.703124v-95.410156c-.039062-32.976562-26.757812-59.695312-59.734375-59.734375h-136.53125c-32.976563.039063-59.6953125 26.757813-59.734375 59.734375v324.265625c.0390625 32.972657 26.757812 59.695313 59.734375 59.734375h136.53125c32.976563-.039062 59.695313-26.761718 59.734375-59.734375v-169.984375h162.398438.144531 71.414062c12.089844-.007812 21.898438-9.789062 21.941407-21.878906v-6.417969l.042968-1.9375c.46875-4.355469-.359375-8.753906-2.375-12.644531-4.078125-7.082031-39.082031-34.3125-50.269531-36.480469zm.710937-118.820312c1.128907 5.472656 1.074219 11.125-.164062 16.574219-2.296875 5.425781-6.238281 9.996093-11.273438 13.0625.113282-.585938.207032-1.140626.324219-1.773438 1.761719-8.644531 2.816407-17.417969 3.148438-26.230469 2.433593-1.324219 5.207031-1.890625 7.964843-1.632812zm-135.289062-26.074219c1.859375-38.273438 48.84375-40.859375 50.476562-40.960938h8.703126c2.003906.09375 48.988281 2.679688 50.847656 40.960938 1.464844 16.957031.585937 34.035156-2.609375 50.753906-1.210938 5.449219-1.859375 11.007813-1.9375 16.589844 0 .75.050781 1.449219.070312 2.183594v.050781c.039063 2.125.101563 4.265625.195313 6.308594.613281 12.628906 1.015625 20.972656-11.09375 31.851562-6.191406 5.742188-11.640625 12.238281-16.214844 19.339844-5.972656 8.675781-7.953125 11.175781-14.394531 11.175781h-18.097657c-6.445312 0-8.449218-2.5-14.398437-11.175781-4.574219-7.101563-10.019531-13.601563-16.210937-19.347656-12.074219-10.871094-11.675782-19.214844-11.09375-31.84375.09375-2.058594.152343-4.183594.195312-6.308594v-.050781c0-.734375.066406-1.433594.066406-2.183594-.074218-5.582031-.726562-11.140625-1.933594-16.589844-3.183593-16.71875-4.046874-33.800781-2.570312-50.753906zm-25.027344 43.277344c-1.308594-5.652344-1.367187-11.523438-.171875-17.203125 2.746094-.277344 5.511719.285156 7.929688 1.613281.328125 8.820312 1.382812 17.601562 3.148437 26.25l.332032 1.800781c-4.875-2.976562-8.777344-7.304687-11.238282-12.460937zm-282.625 52.292968h221.867188v281.601563h-221.867188zm42.667969-68.265624h136.53125c23.554687.027343 42.640625 19.113281 42.667969 42.667968v8.53125h-221.867188v-8.53125c.027344-23.554687 19.113282-42.640625 42.667969-42.667968zm136.53125 409.601562h-59.730469v-17.066406c0-4.714844-3.824218-8.535156-8.535156-8.535156s-8.535156 3.820312-8.535156 8.535156v17.066406h-59.730469c-23.554687-.03125-42.640625-19.117188-42.667969-42.667969h221.867188c-.027344 23.550781-19.113282 42.636719-42.667969 42.667969zm59.734375-252.210938h.085938c1.542968-.742187 3.011718-1.460937 4.265624-2.144531 7.226563-3.957031 14.371094-7.917969 21.480469-12.03125 5.328125-3.191406 11.003907-5.765625 16.910157-7.679687-.976563 15.605468 2.96875 31.128906 11.28125 44.375h-54.023438zm79.292969 22.492188c-20.054688-10.503906-20.363281-36.957031-19.160157-49.988281 2.800782-1.371094 5.515626-2.90625 8.132813-4.597657v2.378907c0 4.714843 3.820313 8.535156 8.535156 8.535156 4.710938 0 8.53125-3.820313 8.53125-8.535156v-19.5l.855469 1.238281c6.269531 9.140625 12.800781 18.585938 28.476562 18.585938h18.140626c15.71875 0 22.1875-9.445313 28.464843-18.585938l.855469-1.238281v19.5c0 4.714843 3.820312 8.535156 8.53125 8.535156 4.714844 0 8.535156-3.820313 8.535156-8.535156v-2.371094c2.617188 1.691406 5.332032 3.230469 8.132813 4.605469 1.203125 13.03125.851562 39.46875-19.15625 49.972656zm159.640625-13.765625c0 .855469-.070313 1.777344-.058594 2.65625v6.296875c-.015625 2.679688-2.195312 4.84375-4.875 4.839844h-40.582031c8.152343-12.90625 12.109375-28.019532 11.332031-43.265625 12.195312 7.460937 23.589844 16.152343 34.011719 25.941406.214843 1.164063.273437 2.351563.171875 3.53125zm0 0"/></svg>