<svg height="504pt" viewBox="0 0 504 504.00105" width="504pt" xmlns="http://www.w3.org/2000/svg"><path d="m478.636719 0h-218.230469c-13.90625 0-25.179688 11.273438-25.179688 25.179688v25.257812c-.648437-.078125-1.109374-.078125-1.261718-.078125h-14.6875c-.972656 0-97.019532 5.492187-100.828125 94.007813-.765625 17.273437-.839844 31.367187-.605469 43.117187-5.117188-2.5625-11.128906-2.621094-16.292969-.160156-3.046875 1.679687-12.328125 6.78125-8.082031 49.394531.070312.675781.214844 1.339844.4375 1.980469 6.28125 16.636719 17.058594 31.199219 31.128906 42.070312-.839844 20.144531-.621094 40.910157 17.746094 63.261719v28.074219c-11.167969 9.613281-24.371094 16.566406-38.609375 20.347656-14.445313 3.132813-28.257813 8.671875-40.859375 16.390625-10.542969 5.984375-21.230469 11.710938-31.898438 17.425781-1.625.839844-3.5 1.738281-5.460937 2.660157-9.015625 3.203124-16.890625 8.976562-22.664063 16.601562-2.707031 5.210938-3.78125 11.117188-3.078124 16.949219 0 1.039062.082031 2.078125.074218 3.105469v19.167968 2.460938c0 9.269531 7.515625 16.785156 16.785156 16.785156h420.035157c9.269531 0 16.785156-7.515625 16.785156-16.785156 0-8 0-18.464844 0-21.628906 0-1.042969 0-2.082032.078125-3.132813.679688-5.796875-.402344-11.664063-3.097656-16.835937-5.75-7.628907-13.605469-13.410157-22.597656-16.636719-1.964844-.921875-3.835938-1.796875-5.453126-2.660157-10.703124-5.714843-21.378906-11.441406-31.898437-17.425781-12.601563-7.71875-26.414063-13.257812-40.855469-16.390625-14.238281-3.808594-27.4375-10.773437-38.613281-20.378906v-28.65625c17.886719-22.132812 18.046875-42.730469 17.242187-62.699219 13.898438-10.960937 24.617188-25.429687 31.054688-41.917969.246094-.671874.410156-1.371093.480469-2.082031 4.238281-42.578125-4.945313-47.699219-7.992188-49.394531-5.203125-2.527344-11.289062-2.472656-16.441406.152344.082031-3.5.117187-7.246094.117187-11.199219l4.574219-3.421875c4.363281-3.261719 9.660157-5.027344 15.109375-5.039062h123.039063c13.90625 0 25.179687-11.273438 25.179687-25.179688v-117.507812c0-13.90625-11.273437-25.179688-25.179687-25.179688zm-368.539063 233.992188c-1.242187-10.464844-1.113281-21.042969.382813-31.476563 3.066406 1.289063 5.902343 3.070313 8.394531 5.273437.824219 10.382813 2.171875 20.714844 4.039062 30.960938 1.261719 6.605469 2.101563 13.285156 2.515626 19.996094-6.433594-7.355469-11.617188-15.71875-15.332032-24.753906zm-92.992187 231.652343c0-1.277343 0-2.519531-.085938-3.828125-.40625-2.605468-.125-5.269531.816407-7.730468 4.265624-4.433594 9.496093-7.820313 15.285156-9.90625 2.257812-1.054688 4.386718-2.0625 6.242187-3.054688 10.820313-5.773438 21.632813-11.566406 32.300781-17.625 10.964844-6.765625 22.980469-11.660156 35.554688-14.488281.835938-.148438 1.675781-.359375 2.515625-.554688-2.015625 28.027344 3.425781 58.3125 22.066406 78.691407h-114.664062v-2.460938c-.039063-7.503906-.046875-16.234375-.03125-19.042969zm365.457031-42.144531c10.667969 6.050781 21.480469 11.84375 32.289062 17.625 1.867188.992188 3.996094 2 6.253907 3.054688 5.789062 2.085937 11.019531 5.476562 15.285156 9.90625.929687 2.457031 1.203125 5.117187.789063 7.710937-.042969 1.285156-.09375 2.578125-.082032 3.855469v21.496094h-114.90625c21.542969-23.308594 23.25-57.613282 21.761719-78.800782 1.015625.238282 2.03125.488282 3.054687.671875 12.574219 2.824219 24.589844 7.71875 35.554688 14.480469zm-56.066406-21.613281c2.449218 19.925781 4.070312 67.222656-31.804688 85.25h-135.71875c-36.21875-18.269531-33.894531-67.464844-31.796875-84.988281 5.421875-2.664063 10.648438-5.707032 15.636719-9.109376v9.847657c0 4.632812 3.757812 8.390625 8.394531 8.390625s8.394531-3.757813 8.394531-8.390625v-39.617188c4.3125 5.761719 8.332032 11.742188 12.042969 17.910157 9.535157 15.476562 18.535157 30.097656 40.917969 30.097656h28.539062c22.382813 0 31.382813-14.621094 40.917969-30.097656 3.84375-6.414063 8.035157-12.617188 12.546875-18.582032v40.289063c0 4.632812 3.757813 8.390625 8.394532 8.390625 4.636718 0 8.394531-3.757813 8.394531-8.390625v-9.863281c4.835937 3.296874 9.898437 6.257812 15.140625 8.863281zm16.667968-199.605469c1.527344 10.484375 1.664063 21.125.402344 31.644531-3.785156 8.960938-8.96875 17.265625-15.351562 24.609375.429687-6.652344 1.269531-13.269531 2.519531-19.816406 1.394531-8.152344 2.972656-17.628906 4.011719-30.90625 2.566406-2.183594 5.394531-4.042969 8.417968-5.53125zm-28.972656 33.574219c-1.828125 9.121093-2.808594 18.394531-2.921875 27.699219 0 4.464843.195313 8.796874.371094 13.09375-.027344.355468-.027344.714843 0 1.074218v.46875c.972656 22.460938 1.734375 40.214844-19.363281 61.441406-9.503906 9.867188-17.761719 20.859376-24.59375 32.734376-9.644532 15.738281-14.078125 22.125-26.582032 22.125h-28.539062c-12.503906 0-16.9375-6.386719-26.625-22.117188-6.828125-11.875-15.082031-22.867188-24.582031-32.734375-1.527344-1.535156-2.90625-3.046875-4.199219-4.550781-16.785156-19.304688-16.0625-36.089844-15.15625-56.898438v-.511718c.023438-.359376.023438-.722657 0-1.082032.183594-4.28125.367188-8.601562.367188-13.042968-.121094-9.289063-1.101563-18.542969-2.925782-27.648438-5.15625-29.960938-6.566406-60.449219-4.199218-90.757812 3.15625-73.132813 81.519531-77.839844 84.457031-78h13.847656s.671875 0 1.679687.132812v75.40625c0 13.90625 11.273438 25.179688 25.179688 25.179688h8.394531v25.183593c0 6.355469 3.589844 12.167969 9.277344 15.011719s12.492187 2.230469 17.582031-1.582031l23.230469-17.425781c-.320313 15.722656-1.894531 31.394531-4.699219 46.867187zm172.835938-93.167969c0 4.636719-3.757813 8.394531-8.390625 8.394531h-123.109375c-9.074219.019531-17.90625 2.960938-25.179688 8.394531l-44.761718 33.574219v-25.183593c0-9.269532-7.515626-16.785157-16.785157-16.785157h-8.394531c-4.636719 0-8.394531-3.757812-8.394531-8.394531v-117.507812c0-4.636719 3.757812-8.394532 8.394531-8.394532h218.230469c4.632812 0 8.390625 3.757813 8.390625 8.394532zm0 0"/><path d="m461.847656 75.539062h-10.734375l-6.488281-19.4375c-1.140625-3.566406-4.535156-5.917968-8.277344-5.742187-3.726562.144531-6.914062 2.726563-7.820312 6.347656l-9.386719 37.527344-16.398437-54.675781c-1.035157-3.457032-4.160157-5.867188-7.765626-5.984375-3.566406-.003907-6.78125 2.148437-8.140624 5.445312l-18.414063 49.113281-8.132813-16.34375c-1.546874-3.035156-4.75-4.859374-8.152343-4.640624-3.386719.238281-6.296875 2.5-7.367188 5.722656l-8.394531 25.179687-17.566406-58.492187c-1.023438-3.425782-4.101563-5.828125-7.671875-5.984375-3.554688-.128907-6.816407 1.972656-8.167969 5.261719l-14.671875 36.703124h-11.105469c-4.632812 0-8.390625 3.761719-8.390625 8.394532 0 4.636718 3.757813 8.394531 8.390625 8.394531h16.789063c3.429687.003906 6.519531-2.085937 7.796875-5.269531l7.855468-19.660156 18.273438 60.914062c1.050781 3.503906 4.253906 5.929688 7.914062 5.984375h.125c3.617188 0 6.824219-2.3125 7.96875-5.742187l10.371094-31.140626 7.722656 15.453126c1.449219 3.027343 4.601563 4.863281 7.949219 4.632812 3.339844-.171875 6.257813-2.308594 7.429688-5.4375l16.476562-43.832031 18.019531 60.082031c1.050782 3.644531 4.441407 6.109375 8.234376 5.984375 3.777343-.089844 7.03125-2.691406 7.949218-6.355469l9.894532-39.59375c1.523437 2.464844 4.207031 3.96875 7.101562 3.980469h16.785156c4.636719 0 8.394532-3.757813 8.394532-8.394531 0-4.632813-3.757813-8.394532-8.394532-8.394532zm0 0"/></svg>