<svg height="512pt" viewBox="-85 0 512 512" width="512pt" xmlns="http://www.w3.org/2000/svg"><path d="m290.132812 0h-238.933593c-28.265625.0273438-51.1718752 22.933594-51.199219 51.199219v409.601562c.0273438 28.265625 22.933594 51.171875 51.199219 51.199219h238.933593c28.265626-.027344 51.171876-22.933594 51.199219-51.199219v-409.601562c-.027343-28.265625-22.933593-51.1718752-51.199219-51.199219zm-273.066406 85.332031h307.199219v349.867188h-307.199219zm34.132813-68.265625h238.933593c18.851563 0 34.132813 15.28125 34.132813 34.132813v17.066406h-307.199219v-17.066406c0-18.851563 15.28125-34.132813 34.132813-34.132813zm238.933593 477.867188h-110.933593v-8.535156c0-4.710938-3.820313-8.53125-8.53125-8.53125-4.714844 0-8.535157 3.820312-8.535157 8.53125v8.535156h-110.933593c-18.851563 0-34.132813-15.28125-34.132813-34.132813v-8.535156h307.199219v8.535156c0 18.851563-15.28125 34.132813-34.132813 34.132813zm0 0"/><path d="m136.535156 51.199219h68.265625c4.710938 0 8.53125-3.820313 8.53125-8.53125 0-4.714844-3.820312-8.535157-8.53125-8.535157h-68.265625c-4.714844 0-8.535156 3.820313-8.535156 8.535157 0 4.710937 3.820312 8.53125 8.535156 8.53125zm0 0"/><path d="m247.464844 51.199219h8.535156c4.710938 0 8.535156-3.820313 8.535156-8.53125 0-4.714844-3.824218-8.535157-8.535156-8.535157h-8.535156c-4.710938 0-8.53125 3.820313-8.53125 8.535157 0 4.710937 3.820312 8.53125 8.53125 8.53125zm0 0"/><path d="m233.078125 289.195312c-7.242187-9.089843-11.195313-20.363281-11.210937-31.984374v-18.277344c0-32.988282-26.742188-59.734375-59.734376-59.734375-32.988281 0-59.734374 26.746093-59.734374 59.734375v50.074218c.015624 15.96875 5.609374 31.433594 15.824218 43.714844l54.414063 65.273438c3.015625 3.621094 8.402343 4.117187 12.023437 1.097656 3.625-3.015625 4.117188-8.398438 1.101563-12.023438l-54.417969-65.277343c-7.667969-9.203125-11.871094-20.804688-11.878906-32.785157v-50.074218c0-23.5625 19.105468-42.667969 42.667968-42.667969 23.566407 0 42.667969 19.105469 42.667969 42.667969v18.277344c.011719 15.503906 5.285157 30.546874 14.949219 42.667968l13.570312 16.957032c1.902344 2.378906 4.933594 3.5625 7.949219 3.101562 3.015625-.457031 5.554688-2.492188 6.664063-5.332031 1.109375-2.839844.621094-6.058594-1.285156-8.4375zm0 0"/><path d="m193.339844 294.144531c-3.621094-4.53125-5.59375-10.15625-5.605469-15.957031v-39.253906c0-14.140625-11.460937-25.601563-25.601563-25.601563-14.136718 0-25.597656 11.460938-25.597656 25.601563v46.78125c.003906 10.136718 3.613282 19.941406 10.179688 27.664062l43.050781 50.550782c3.0625 3.589843 8.457031 4.019531 12.046875.957031 3.59375-3.066407 4.019531-8.460938.957031-12.050781l-43.050781-50.558594c-3.941406-4.621094-6.109375-10.492188-6.117188-16.5625v-46.78125c0-4.714844 3.820313-8.535156 8.53125-8.535156 4.714844 0 8.535157 3.820312 8.535157 8.535156v39.253906c.027343 9.796875 3.402343 19.289062 9.566406 26.90625l43.722656 50.386719c1.964844 2.414062 5.089844 3.5625 8.148438 3.003906 3.0625-.558594 5.574219-2.738281 6.5625-5.691406.984375-2.949219.285156-6.203125-1.824219-8.488281zm0 0"/><path d="m305.007812 267.367188c-5.617187-6.253907-11.863281-13.3125-14.269531-16.15625-.195312-1.507813-.441406-3.976563-.605469-5.878907v-6.398437c.03125-17.105469-3.398437-34.039063-10.078124-49.785156-1.136719-2.878907-3.75-4.914063-6.820313-5.320313-3.070313-.402344-6.121094.886719-7.964844 3.375-1.847656 2.488281-2.199219 5.78125-.925781 8.601563 5.78125 13.644531 8.746094 28.3125 8.722656 43.128906v7.015625c-.191406 4.394531.535156 8.785156 2.132813 12.882812 5.121093 7.113281 10.828125 13.78125 17.066406 19.933594 1.996094 2.417969 5.15625 3.542969 8.230469 2.9375 3.074218-.609375 5.570312-2.851563 6.496094-5.84375.929687-2.992187.144531-6.253906-2.046876-8.492187zm0 0"/><path d="m118.996094 136.730469c27.59375-11.582031 58.679687-11.582031 86.273437 0 1.046875.449219 2.179688.679687 3.320313.683593 4.066406.007813 7.578125-2.851562 8.386718-6.839843.808594-3.984375-1.308593-7.988281-5.058593-9.5625-31.84375-13.371094-67.726563-13.371094-99.566407 0-4.308593 1.855469-6.308593 6.839843-4.484374 11.160156 1.828124 4.316406 6.796874 6.355469 11.128906 4.558594zm0 0"/><path d="m48.734375 200.328125c4.335937 1.839844 9.347656-.183594 11.1875-4.523437 5.585937-13.183594 13.671875-25.164063 23.816406-35.277344 3.054688-3.371094 2.921875-8.546875-.292969-11.761719-3.21875-3.214844-8.394531-3.339844-11.765624-.285156-11.6875 11.660156-21.011719 25.472656-27.453126 40.679687-1.828124 4.328125.1875 9.320313 4.507813 11.167969zm0 0"/><path d="m42.667969 288.296875c4.710937 0 8.53125-3.820313 8.53125-8.53125v-40.832031c0-4.714844-3.820313-8.535156-8.53125-8.535156-4.714844 0-8.535157 3.820312-8.535157 8.535156v40.832031c0 4.710937 3.820313 8.53125 8.535157 8.53125zm0 0"/><path d="m74.46875 362.09375c-3.738281-4.894531-7.066406-10.089844-9.957031-15.53125-5.785157-10.882812-9.765625-22.636719-11.785157-34.796875-.472656-3.03125-2.535156-5.574219-5.40625-6.660156-2.867187-1.089844-6.097656-.554688-8.460937 1.402343-2.363281 1.953126-3.496094 5.027344-2.96875 8.046876 2.328125 13.980468 6.902344 27.492187 13.542969 40.015624 3.332031 6.277344 7.171875 12.269532 11.484375 17.917969l20.867187 27.308594c2.863282 3.742187 8.21875 4.449219 11.960938 1.585937 3.742187-2.867187 4.453125-8.222656 1.589844-11.964843zm0 0"/><path d="m271.359375 282.453125c-10.863281-13.566406-15.359375-19.175781-15.359375-34.988281v-8.53125c0-51.839844-42.027344-93.867188-93.867188-93.867188-51.839843 0-93.867187 42.027344-93.867187 93.867188v54.441406c.039063 21.082031 6.976563 41.574219 19.753906 58.34375l41.738281 54.535156c2.867188 3.742188 8.222657 4.453125 11.964844 1.589844 3.742188-2.867188 4.453125-8.222656 1.585938-11.964844l-41.761719-54.546875c-10.488281-13.789062-16.183594-30.628906-16.214844-47.957031v-54.441406c0-42.414063 34.386719-76.800782 76.800781-76.800782 42.414063 0 76.800782 34.386719 76.800782 76.800782v8.53125c0 21.820312 7.613281 31.292968 19.132812 45.636718l1.902344 2.375c2.953125 3.644532 8.296875 4.222657 11.960938 1.292969 3.664062-2.929687 4.273437-8.269531 1.367187-11.953125zm0 0"/></svg>