<svg height="512pt" viewBox="0 0 512 512" width="512pt" xmlns="http://www.w3.org/2000/svg"><path d="m8.535156 76.800781c4.710938 0 8.53125-3.820312 8.53125-8.535156v-25.597656c0-14.140625 11.460938-25.601563 25.601563-25.601563h25.597656c4.714844 0 8.535156-3.820312 8.535156-8.53125 0-4.714844-3.820312-8.535156-8.535156-8.535156h-25.597656c-23.554688.0273438-42.6406252 19.113281-42.667969 42.667969v25.597656c0 4.714844 3.820312 8.535156 8.535156 8.535156zm0 0"/><path d="m68.265625 494.933594h-25.597656c-14.140625 0-25.601563-11.460938-25.601563-25.601563v-25.597656c0-4.714844-3.820312-8.535156-8.53125-8.535156-4.714844 0-8.535156 3.820312-8.535156 8.535156v25.597656c.0273438 23.554688 19.113281 42.640625 42.667969 42.667969h25.597656c4.714844 0 8.535156-3.820312 8.535156-8.535156 0-4.710938-3.820312-8.53125-8.535156-8.53125zm0 0"/><path d="m503.464844 435.199219c-4.710938 0-8.53125 3.820312-8.53125 8.535156v25.597656c0 14.140625-11.460938 25.601563-25.601563 25.601563h-25.597656c-4.714844 0-8.535156 3.820312-8.535156 8.53125 0 4.714844 3.820312 8.535156 8.535156 8.535156h25.597656c23.554688-.027344 42.640625-19.113281 42.667969-42.667969v-25.597656c0-4.714844-3.820312-8.535156-8.535156-8.535156zm0 0"/><path d="m469.332031 0h-25.597656c-4.714844 0-8.535156 3.820312-8.535156 8.535156 0 4.710938 3.820312 8.53125 8.535156 8.53125h25.597656c14.140625 0 25.601563 11.460938 25.601563 25.601563v25.597656c0 4.714844 3.820312 8.535156 8.53125 8.535156 4.714844 0 8.535156-3.820312 8.535156-8.535156v-25.597656c-.027344-23.554688-19.113281-42.6406252-42.667969-42.667969zm0 0"/><path d="m68.265625 34.132812h-17.066406c-9.425781 0-17.066407 7.640626-17.066407 17.066407v17.066406c0 4.714844 3.820313 8.535156 8.535157 8.535156 4.710937 0 8.53125-3.820312 8.53125-8.535156v-17.066406h17.066406c4.714844 0 8.535156-3.820313 8.535156-8.53125 0-4.714844-3.820312-8.535157-8.535156-8.535157zm0 0"/><path d="m68.265625 460.800781h-17.066406v-17.066406c0-4.714844-3.820313-8.535156-8.53125-8.535156-4.714844 0-8.535157 3.820312-8.535157 8.535156v17.066406c0 9.425781 7.640626 17.066407 17.066407 17.066407h17.066406c4.714844 0 8.535156-3.820313 8.535156-8.535157 0-4.710937-3.820312-8.53125-8.535156-8.53125zm0 0"/><path d="m443.734375 477.867188h17.066406c9.425781 0 17.066407-7.640626 17.066407-17.066407v-17.066406c0-4.714844-3.820313-8.535156-8.535157-8.535156-4.710937 0-8.53125 3.820312-8.53125 8.535156v17.066406h-17.066406c-4.714844 0-8.535156 3.820313-8.535156 8.53125 0 4.714844 3.820312 8.535157 8.535156 8.535157zm0 0"/><path d="m469.332031 76.800781c4.714844 0 8.535157-3.820312 8.535157-8.535156v-17.066406c0-9.425781-7.640626-17.066407-17.066407-17.066407h-17.066406c-4.714844 0-8.535156 3.820313-8.535156 8.535157 0 4.710937 3.820312 8.53125 8.535156 8.53125h17.066406v17.066406c0 4.714844 3.820313 8.535156 8.53125 8.535156zm0 0"/><path d="m434.789062 327.269531c-1.464843-1.722656-3.558593-2.792969-5.816406-2.972656-2.253906-.183594-4.492187.542969-6.214844 2.007813-15.054687 12.871093-31.011718 24.648437-47.742187 35.242187 6.296875-7.6875 11.828125-15.976563 16.511719-24.746094 1.492187-2.691406 1.414062-5.980469-.199219-8.605469-1.613281-2.621093-4.515625-4.171874-7.59375-4.054687s-5.851563 1.882813-7.261719 4.625c-22.636718 42.148437-65.578125 69.476563-113.347656 72.128906-2.851562.105469-5.683594.121094-8.53125.105469-1.914062 0-3.824219 0-5.855469-.09375-47.710937-2.707031-90.582031-30.027344-113.195312-72.125-1.410157-2.738281-4.183594-4.507812-7.261719-4.625s-5.980469 1.433594-7.59375 4.054688c-1.613281 2.625-1.6875 5.914062-.195312 8.609374 4.667968 8.730469 10.175781 16.984376 16.449218 24.644532-16.675781-10.578125-32.578125-22.324219-47.589844-35.160156-2.320312-1.980469-5.519531-2.574219-8.394531-1.554688-2.878906 1.019531-4.992187 3.492188-5.546875 6.492188-.558594 3 .527344 6.070312 2.847656 8.050781 40.109376 34.132812 102.144532 75.5625 170.011719 78.660156 2.558594.09375 5.121094.179687 7.722657.179687 2.601562 0 5.121093-.085937 8.070312-.179687h.171875c67.515625-3.15625 129.476563-44.492187 169.582031-78.640625 1.730469-1.46875 2.800782-3.5625 2.984375-5.820312.183594-2.257813-.539062-4.496094-2.011719-6.222657zm0 0"/><path d="m312.261719 339.625c3.769531-2.835938 4.523437-8.195312 1.683593-11.964844-2.839843-3.773437-8.199218-4.527344-11.96875-1.6875-27.238281 20.457032-64.714843 20.457032-91.953124 0-3.769532-2.828125-9.121094-2.0625-11.949219 1.707032-2.828125 3.769531-2.0625 9.121093 1.707031 11.945312 33.324219 25.054688 79.199219 25.054688 112.523438 0zm0 0"/><path d="m503.464844 290.132812h-19.113282c10.863282-12.015624 17.007813-19.949218 17.347657-20.394531 2.363281-3.066406 2.363281-7.34375 0-10.410156-4.46875-5.820313-111.128907-142.507813-237.96875-148.214844-3.089844-.113281-6.117188-.136719-9.265625-.113281-2.089844 0-4.191406 0-6.519532.113281h-.113281c-126.453125 5.792969-233.050781 142.402344-237.523437 148.214844-2.363282 3.066406-2.363282 7.34375 0 10.410156.339844.445313 6.484375 8.378907 17.347656 20.394531h-19.121094c-4.714844 0-8.535156 3.820313-8.535156 8.535157 0 4.710937 3.820312 8.53125 8.535156 8.53125h494.929688c4.714844 0 8.535156-3.820313 8.535156-8.53125 0-4.714844-3.820312-8.535157-8.535156-8.535157zm-475.425782-25.597656c31.332032-37.394531 67.96875-70 108.742188-96.777344-22.261719 27.335938-34.40625 61.519532-34.382812 96.777344.007812 8.574219.722656 17.136719 2.144531 25.597656h-53.566407c-10.605468-11.03125-18.464843-20.199218-22.9375-25.597656zm202.359376 0c0-14.140625 11.464843-25.601562 25.601562-25.601562s25.601562 11.460937 25.601562 25.601562c0 14.136719-11.464843 25.597656-25.601562 25.597656s-25.601562-11.460937-25.601562-25.597656zm59.511718 25.597656c5.648438-7.339843 8.726563-16.335937 8.757813-25.597656 0-23.566406-19.105469-42.667968-42.667969-42.667968s-42.667969 19.101562-42.667969 42.667968c.03125 9.261719 3.109375 18.257813 8.757813 25.597656h-38.476563c-2.941406-8.214843-4.433593-16.875-4.414062-25.597656 0-42.417968 34.386719-76.800781 76.800781-76.800781s76.800781 34.382813 76.800781 76.800781c.019531 8.722656-1.472656 17.382813-4.414062 25.597656zm56.320313 0c2.40625-8.320312 3.628906-16.9375 3.636719-25.597656 0-51.84375-42.027344-93.867187-93.867188-93.867187s-93.867188 42.023437-93.867188 93.867187c.019532 8.660156 1.253907 17.277344 3.667969 25.597656h-43.96875c-1.582031-8.441406-2.375-17.011718-2.367187-25.597656-.039063-72.65625 56.851562-132.605468 129.410156-136.363281 2.851562-.105469 5.683594-.121094 8.53125-.105469 1.90625 0 3.816406 0 5.847656.097656 72.511719 3.820313 129.332032 63.757813 129.28125 136.371094.007813 8.585938-.785156 17.15625-2.367187 25.597656zm61.261719 0c1.40625-8.460937 2.113281-17.023437 2.109374-25.597656.023438-35.324218-12.175781-69.570312-34.535156-96.914062 40.835938 26.8125 77.523438 59.460937 108.894532 96.914062-4.472657 5.390625-12.332032 14.554688-22.9375 25.597656zm0 0"/></svg>