<svg width="100" height="100" xmlns="http://www.w3.org/2000/svg">
 <g>
  <title>background</title>
  <rect x="-1" y="-1" width="102" height="102" id="canvas_background" fill="none"/>
 </g>

 <g>
  <title>Layer 1</title>
  <g transform="rotate(-90 48.87289428710938,48.91121292114258) " stroke="null" id="svg_12">
   <path stroke="null" d="m20.19565,84.95097c4.52354,0 8.19189,-3.62881 8.19189,-8.1073l0,-24.31452c0,-13.4318 11.00503,-24.31822 24.58317,-24.31822l24.57942,0c4.52729,0 8.19563,-3.62882 8.19563,-8.1036c0,-4.47851 -3.66834,-8.10731 -8.19563,-8.10731l-24.57942,0c-22.61772,0.02597 -40.94445,18.15518 -40.9707,40.52914l0,24.31452c0,4.4785 3.66834,8.1073 8.19564,8.1073l0,0zm0,0" id="svg_3"/>
   <path stroke="null" d="m77.55013,45.29327l-16.38753,0c-9.05084,0 -16.38753,7.25763 -16.38753,16.21092l0,16.21092c0,4.4785 3.66835,8.1073 8.19564,8.1073c4.52355,0 8.19189,-3.62881 8.19189,-8.1073l0,-16.21092l16.38753,0c4.52729,0 8.19563,-3.62881 8.19563,-8.1036c0,-4.4785 -3.66834,-8.10731 -8.19563,-8.10731l0,0zm0,0" id="svg_7"/>
  </g>
 </g>
</svg>